# xmcd
#
# Track frame offsets:
#	150
#	15980
#	31748
#	48812
#	64531
#	76470
#	92093
#	109428
#	121981
#	136823
#
# Disc length: 2022 seconds
#
# Revision: 0
# Processed by: cddbd v1.5.2PL0 Copyright (c) Steve Scherf et al.
# Submitted via: EasyCDDAExtractor 16.0.6.1
#
DISCID=7207e40a
DTITLE=Συλλογικός δίσκος - Λαϊκό τραγούδι 1954-1967, 1954-3
DYEAR=2008
DGENRE=Λαϊκή
TTITLE0=Τσιτσάνης Βασίλης-Λίντα Μαίρη - Για να σε κάνω άνθρωπο [Βασίλης Τσιτσά
TTITLE0=νης]
TTITLE1=Καζαντζίδης Στέλιος-Γρίλλη Μαρία - Τα μαλλιά τα γκρίζα [Ηλίας Ποτοσίδη
TTITLE1=ς-Χρήστος Κολοκοτρώνης]
TTITLE2=Γκρέϋ Καίτη-Ρουμελιώτης Δημήτρης - Τί τό 'κανες άσπλαχνη το παιδί σου 
TTITLE2=[Γρηγόρης Μπιθικώτσης-Ν. Μπρίλης]
TTITLE3=Καζαντζίδης Στέλιος-Μπέλλα Άννα - Ο ζωντανός ο χωρισμός [Γιώργος Μητσά
TTITLE3=κης]
TTITLE4=Νίνου Μαρίκα - Τι όμορφη, που είσαι, όταν κλαις [Στέλιος Χρυσίνης-Χρ. 
TTITLE4=Κολοκοτρώνης]
TTITLE5=Νίνου Μαρίκα - Τι μπελάς το γυναικείο φύλο [Βασίλης Τσιτσάνης]
TTITLE6=Καζαντζίδης Στέλιος - Η  πληγωμένη μου καρδιά [Θεόδωρος Δερβενιώτης-Χρ
TTITLE6=Κολοκοτρώνης]
TTITLE7=Γαβαλάς Πάνος - Γλίτωσα απ' τα χέρια σου [Σ. Μπαλαγούρας-Κώστας Κοφινι
TTITLE7=ώτης]
TTITLE8=Καζαντζίδης Στέλιος-Γκρεζή Νίτσα - Άνθρωπέ μου θα πεθάνεις [Μπάμπης Τρ
TTITLE8=ικαλινός]
TTITLE9=Γαβαλάς Πάνος-Νίνου Μαρίκα - Άπιστη, ξεμυαλισμένη [Σπυρίδων Βασιλείου]
EXTD=
EXTT0=
EXTT1=
EXTT2=
EXTT3=
EXTT4=
EXTT5=
EXTT6=
EXTT7=
EXTT8=
EXTT9=
PLAYORDER=
